<svg xmlns="http://www.w3.org/2000/svg" width="74.863" height="80.816" viewBox="0 0 74.863 80.816">
  <g id="Icon" transform="translate(-31.379 -29.928)">
    <g id="Icon-2" data-name="Icon" transform="translate(-12.336 9)">
      <g id="Ellipse_3" data-name="Ellipse 3" transform="matrix(0.99, 0.139, -0.139, 0.99, 52.762, 20.928)" fill="#a4dc4e" stroke="#115a00" stroke-width="4">
        <circle cx="32.5" cy="32.5" r="32.5" stroke="none"/>
        <circle cx="32.5" cy="32.5" r="30.5" fill="none"/>
      </g>
      <g id="Group_1" data-name="Group 1" transform="matrix(0.99, 0.139, -0.139, 0.99, 11.261, -7.121)">
        <g id="Intersection_1" data-name="Intersection 1" transform="matrix(0.899, 0.438, -0.438, 0.899, -344.626, -160.851)" fill="#fff">
          <path d="M 476.0733337402344 37.98028182983398 C 471.5052490234375 32.70847702026367 469.0001220703125 26.00373077392578 469.0001220703125 18.99990081787109 C 469.0001220703125 15.09881019592285 469.7609252929688 11.31443023681641 471.2614135742188 7.751860618591309 C 472.7111511230469 4.309840202331543 474.7878112792969 1.215140461921692 477.4337768554688 -1.446289539337158 C 480.0790405273438 -4.107019424438477 483.1607666015625 -6.201449394226074 486.5933532714844 -7.671379566192627 C 489.8732604980469 -9.075939178466797 493.3452453613281 -9.851318359375 496.9263610839844 -9.980377197265625 C 501.4945678710938 -4.709492683410645 503.9998168945312 1.995287299156189 503.9998168945312 9 C 503.9998168945312 12.9010705947876 503.2389831542969 16.68546104431152 501.7384643554688 20.2480297088623 C 500.2886962890625 23.69004058837891 498.2119750976562 26.78474998474121 495.5659790039062 29.44618034362793 C 492.920654296875 32.1069221496582 489.8388671875 34.20135116577148 486.4062805175781 35.67127990722656 C 483.1263122558594 37.07584762573242 479.6544494628906 37.85122299194336 476.0733337402344 37.98028182983398 Z" stroke="none"/>
          <path d="M 476.9656982421875 35.92980194091797 C 479.958740234375 35.71620941162109 482.8622436523438 35.01326751708984 485.6189575195312 33.83275985717773 C 488.8146057128906 32.46429443359375 491.68408203125 30.51401710510254 494.1476440429688 28.03608322143555 C 496.6118469238281 25.55752754211426 498.5456237792969 22.67605018615723 499.8952941894531 19.47169494628906 C 501.291748046875 16.15618324279785 501.9998168945312 12.63299465179443 501.9998168945312 8.999995231628418 C 501.9998168945312 2.802429914474487 499.893310546875 -3.143023252487183 496.0340881347656 -7.929919242858887 C 493.0408325195312 -7.716380596160889 490.1375427246094 -7.01345157623291 487.3806457519531 -5.832860469818115 C 484.18505859375 -4.464405059814453 481.3156433105469 -2.514127254486084 478.8521118164062 -0.03620514646172523 C 476.3879699707031 2.442339181900024 474.4542236328125 5.323817253112793 473.1046142578125 8.528172492980957 C 471.7081909179688 11.84369468688965 471.0001220703125 15.36689472198486 471.0001220703125 18.99990653991699 C 471.0001220703125 25.19671058654785 473.1065063476562 31.14211082458496 476.9656982421875 35.92980194091797 M 475.1952819824219 39.99898529052734 C 470.1079406738281 34.47636032104492 467.0001220703125 27.10046195983887 467.0001220703125 18.99990653991699 C 467.0001220703125 1.943983793258667 480.77294921875 -11.89459419250488 497.8042602539062 -11.99908256530762 C 502.8927612304688 -6.476427555084229 505.9998168945312 0.8983948826789856 505.9998168945312 8.999995231628418 C 505.9998168945312 26.05591773986816 492.2265930175781 39.89449310302734 475.1952819824219 39.99898529052734 Z" stroke="none" fill="#115a00"/>
        </g>
        <path id="Path_1" data-name="Path 1" d="M-378.832,102.725V121.2" transform="matrix(0.985, -0.174, 0.174, 0.985, 421.305, -87.518)" fill="none" stroke="#115a00" stroke-width="4"/>
        <path id="Path_2" data-name="Path 2" d="M-370.758,110.011h0s0-.124.02-.657a54,54,0,0,1,.87-7.6c.766-4.192,2.4-9.627,5.623-12.943,6.34-6.514,13.859-6.375,17.878-6.791" transform="translate(435.755 -55.745) rotate(-5)" fill="none" stroke="#115a00" stroke-width="4"/>
      </g>
      <rect id="Rectangle_3" data-name="Rectangle 3" width="4" height="8" transform="matrix(1, -0.028, 0.028, 1, 67.727, 82.057)" fill="#fff"/>
      <path id="Path_3" data-name="Path 3" d="M-370.984,106.453" transform="translate(444 -22)" fill="none" stroke="#707070" stroke-width="1"/>
      <path id="Path_4" data-name="Path 4" d="M-370.827,105.562a23.782,23.782,0,0,0-.385,3.284v.385a13.574,13.574,0,0,0,.228,2.13l-1.234-.3-.118-5.089Z" transform="translate(444 -22)" fill="#fff"/>
    </g>
  </g>
</svg>
